<?xml version="1.0" encoding="utf-8"?>
<!-- Generator: Adobe Illustrator 19.2.1, SVG Export Plug-In . SVG Version: 6.00 Build 0)  -->
<svg version="1.1" xmlns="http://www.w3.org/2000/svg" xmlns:xlink="http://www.w3.org/1999/xlink" x="0px" y="0px"
	 viewBox="0 0 800 800" style="enable-background:new 0 0 800 800;" xml:space="preserve">
<style type="text/css">
	.st0{fill:#FFFFFF;}
	.st1{fill:#F39E32;}
</style>
<g id="source">
</g>
<g id="Layer_1">
	<g>
		<path class="st1" d="M400,47.7c-83.5,0-160.3,29.1-220.7,77.7l67.3,78.3c42.3-33.1,95.5-52.8,153.3-52.8
			c57.8,0,111,19.7,153.3,52.8l67.3-78.3C560.3,76.8,483.5,47.7,400,47.7z"/>
		<path class="st0" d="M638.5,140.7L571.1,219c48,45.4,78,109.7,78,181c0,44.4-11.7,86.2-32.1,122.3L483.6,388.9l-71.9-150.2v225
			l136.5,136.5c-41.4,30.7-92.7,48.9-148.2,48.9c-55.5,0-106.8-18.2-148.2-48.9l136.5-136.5v-225l-71.9,150.2L183,522.3
			c-20.4-36.1-32.1-77.9-32.1-122.3c0-71.3,30-135.6,78-181l-67.3-78.3C91.6,205.1,47.7,297.4,47.7,400
			c0,194.6,157.7,352.3,352.3,352.3c194.5,0,352.3-157.7,352.3-352.3C752.3,297.4,708.4,205.1,638.5,140.7z"/>
	</g>
</g>
</svg>
